<?xml version="1.0" encoding="utf-8"?>
<svg version="1.1" xmlns="http://www.w3.org/2000/svg" width="2400" height="2400">
  <g id="svg2">
    <path stroke="rgb(255,0,0)" stroke-width="0" opacity="0.7686274509803922" d="M 952.053 171.564 C 959.068 171.778 974.906 174.892 980.105 180.915 C 984.934 186.51 980.057 200.316 983.845 205.226 C 987.032 209.358 995.664 207.067 998.806 210.836 C 1002.18 214.882 1003.03 224.913 1002.55 229.537 C 1002.2 232.863 998.237 236.24 998.806 237.018 C 999.3 237.695 1001.93 235.863 1004.42 235.148 C 1008.07 234.098 1013.58 230.822 1019.38 231.407 C 1026.78 232.155 1038.15 241.88 1045.55 242.628 C 1051.35 243.213 1050.6 236.149 1060.52 238.888 C 1093 247.859 1276.68 357.454 1316.72 394.106 C 1336.34 412.066 1333.16 426.91 1342.9 437.118 C 1350.94 445.539 1363.83 449.846 1369.08 453.949 C 1372.12 456.324 1382.08 463.88 1385.91 467.039 C 1390.19 470.566 1390.57 470.306 1403.19 478.521 C 1404.75 473.984 1408.78 469.54 1412.09 467.039 C 1415.37 464.567 1417.11 462.044 1423.31 463.299 C 1431.75 465.006 1449.2 477.675 1467.77 490.099 C 1473.6 491.666 1481.41 495.75 1485.03 498.831 C 1486.33 499.942 1486.61 501.068 1486.82 502.255 C 1493.4 506.161 1499.77 509.553 1505.6 511.922 C 1531.52 522.463 1554.59 516.869 1584.14 530.623 C 1623.62 548.995 1704.16 603.383 1720.66 625.997 C 1728.56 636.83 1724.87 645.519 1724.4 652.179 C 1724.06 657.005 1720.88 659.022 1720.66 663.399 C 1720.4 668.699 1725.52 676.674 1724.4 682.1 C 1723.35 687.169 1719.47 692.372 1715.05 695.191 C 1712.78 696.638 1710.35 697.785 1707.49 698.477 C 1707.06 713.111 1706.24 726.189 1705.7 734.463 C 1704.69 749.949 1695.62 760.836 1698.22 766.254 C 1700.05 770.073 1705.98 773.095 1711.31 769.995 C 1722.93 763.234 1747.68 698.377 1759.93 687.71 C 1765.84 682.568 1769.83 683.259 1774.89 683.97 C 1780.42 684.748 1788.23 688.064 1791.72 693.321 C 1795.69 699.289 1795.75 714.21 1795.46 719.502 C 1795.3 722.409 1792.73 724.456 1793.59 725.112 C 1794.74 725.979 1800.68 720.898 1804.81 721.372 C 1809.84 721.948 1818.15 725.466 1821.64 730.723 C 1825.61 736.691 1826.89 743.691 1825.38 756.904 C 1822.57 781.667 1784.75 863.584 1787.98 878.46 C 1789.26 884.35 1796.68 880.426 1799.2 884.07 C 1802.41 888.694 1803.87 893.456 1802.94 906.511 C 1800.81 936.648 1761.9 1050.68 1761.8 1086.04 C 1761.75 1104.7 1768.04 1118.67 1773.02 1121.57 C 1776.24 1123.45 1780.57 1120.02 1784.24 1115.96 C 1790.03 1109.56 1793.91 1086.45 1801.07 1080.43 C 1806.44 1075.92 1813.86 1075.77 1819.77 1076.69 C 1825.71 1077.62 1833.18 1081.35 1836.6 1086.04 C 1840.02 1090.71 1841.44 1093.11 1840.34 1104.74 C 1837.49 1134.97 1780.16 1284.13 1784.24 1304.84 C 1785.57 1311.58 1792.94 1306.81 1795.46 1310.45 C 1798.67 1315.08 1799.97 1320.28 1799.2 1332.89 C 1797.53 1360.33 1759.81 1470 1765.54 1488.11 C 1767.83 1495.34 1777.33 1489.7 1780.5 1493.72 C 1784.16 1498.35 1785.1 1508.11 1784.24 1516.16 C 1783.26 1525.39 1771.85 1543.53 1773.02 1546.08 C 1773.62 1547.38 1775.83 1544 1778.63 1544.21 C 1783.7 1544.6 1798.32 1547.99 1802.94 1553.56 C 1807.32 1558.84 1808.59 1569.03 1806.68 1576 C 1804.65 1583.43 1796.28 1591.22 1789.85 1596.58 C 1783.74 1601.67 1776.73 1600.54 1769.28 1607.8 C 1757.64 1619.14 1742.37 1655.75 1730.01 1667.64 C 1721.56 1675.76 1711.88 1674.13 1705.7 1680.73 C 1699.23 1687.63 1702.02 1699.16 1692.61 1708.78 C 1677.99 1723.72 1637.08 1735.29 1612.19 1755.53 C 1585.72 1777.07 1551.78 1824.95 1539.26 1835.95 C 1534.27 1840.33 1533.12 1838.64 1529.91 1841.56 C 1525.71 1845.38 1525.27 1852.32 1516.82 1858.39 C 1501.53 1869.36 1446.19 1895.89 1430.79 1895.79 C 1423.19 1895.74 1420.8 1890.98 1417.7 1886.44 C 1414.24 1881.36 1416.37 1865.65 1412.09 1865.87 C 1405.44 1866.21 1393.93 1902.08 1374.69 1918.23 C 1349.84 1939.1 1295.52 1964.5 1266.23 1974.33 C 1248.65 1980.23 1231.49 1983 1219.91 1982.48 C 1210.04 2003.7 1199.2 2023.49 1191.42 2030.44 C 1184.61 2036.52 1177.35 2034.67 1172.72 2034.18 C 1169.4 2033.83 1168.82 2030.34 1165.24 2030.44 C 1159.4 2030.6 1145.42 2039.6 1139.06 2041.66 C 1134.96 2042.98 1133.85 2040.03 1129.71 2043.53 C 1119.32 2052.29 1101.07 2108.33 1079.22 2123.94 C 1059.58 2137.96 1024.73 2141.59 1008.16 2138.9 C 996.586 2137.03 989.801 2129.12 983.845 2122.07 C 978.121 2115.3 979.088 2103.36 972.624 2097.76 C 965.74 2091.8 949.334 2096.35 942.703 2088.41 C 934.625 2078.74 939.487 2038.68 933.352 2037.92 C 926.81 2037.1 915.358 2080.38 903.431 2090.28 C 894.044 2098.07 877.556 2095.45 871.639 2099.63 C 867.846 2102.31 869.943 2106.77 866.029 2108.98 C 859.87 2112.46 847.272 2115.06 832.367 2112.72 C 809.004 2109.06 758.168 2088.95 735.122 2075.32 C 718.265 2065.35 706.05 2049.58 699.59 2043.53 C 696.438 2040.58 696.829 2041.17 693.98 2037.92 C 688.132 2031.25 670.719 2006.33 664.059 2000.52 C 660.745 1997.62 660.589 1997.1 656.578 1996.78 C 649.219 1996.18 631.845 2007.81 619.176 2004.26 C 603.885 1999.97 581.535 1974.51 572.424 1964.98 C 567.08 1959.4 568.568 1957.69 563.074 1951.89 C 553.238 1941.52 521.098 1906.74 510.711 1907.01 C 504.157 1907.18 505.023 1921.96 499.49 1925.71 C 493.864 1929.53 484.443 1931.19 477.049 1929.45 C 468.838 1927.52 458.772 1916.54 452.738 1912.62 C 448.689 1909.99 446.752 1907.37 443.387 1907.01 C 439.912 1906.64 436.785 1909.63 432.167 1910.75 C 426.168 1912.21 415.887 1915.83 409.726 1914.49 C 404.362 1913.33 400.305 1911.7 396.635 1905.14 C 390.011 1893.3 393.297 1842.7 383.544 1835.95 C 376.435 1831.02 361.192 1847.88 353.623 1847.17 C 347.871 1846.62 344.676 1841.83 340.532 1837.82 C 335.894 1833.33 333.961 1826.06 327.442 1820.99 C 319.115 1814.5 298.386 1810.98 291.91 1804.16 C 287.199 1799.19 290.677 1789.41 286.3 1787.33 C 281.104 1784.85 268.914 1797.02 260.118 1794.81 C 249.618 1792.16 235.347 1774.37 228.327 1766.75 C 223.562 1761.59 225.726 1758.88 218.976 1753.66 C 205.079 1742.93 142.862 1720.16 131.082 1710.65 C 126.184 1706.7 129.045 1704.32 125.471 1701.3 C 120.047 1696.72 103.959 1697.27 97.42 1688.21 C 88.849 1676.33 87.333 1647.58 86.199 1628.37 C 85.131 1610.26 89.982 1597.95 89.94 1576 C 89.881 1545.84 81.545 1481.33 82.459 1460.06 C 82.903 1449.73 85.944 1448.78 86.199 1441.36 C 86.521 1432.02 82.459 1418.92 82.459 1407.7 C 82.459 1396.47 86.647 1385.92 86.199 1374.03 C 85.712 1361.11 79.647 1349.04 78.719 1332.89 C 77.571 1312.92 83.191 1292.15 82.459 1261.83 C 81.425 1218.98 66.896 1139.05 67.498 1093.52 C 67.96 1058.65 83.383 1022.05 78.719 1007.5 C 76.194 999.619 67.941 1004.13 63.758 996.276 C 56.011 981.724 47.109 942.945 48.798 910.252 C 50.843 870.644 72.313 789.165 84.329 773.735 C 89.287 767.369 94.118 770.049 99.29 769.995 C 104.698 769.938 111.821 775.862 116.121 773.735 C 120.766 771.437 119.558 760.775 125.471 755.034 C 133.459 747.279 155.656 744.03 164.743 734.463 C 169.645 729.302 174.488 721.594 177.345 714.404 C 171.908 714.919 166.502 714.716 162.873 713.892 C 157.025 712.563 152.593 708.812 149.783 704.541 C 146.894 700.151 148.885 691.467 146.042 687.71 C 143.539 684.403 137.72 686.612 134.822 682.1 C 129.969 674.546 123.822 651.443 127.341 637.218 C 131.096 622.043 147.452 601.43 159.133 594.206 C 168.421 588.462 182.714 589.63 189.055 590.465 C 192.851 590.966 192.753 594.868 196.535 594.206 C 199.857 593.624 205.696 588.571 212.017 583.054 C 216.883 573.907 226.661 563.738 241.417 553.064 C 270.364 532.123 365.808 499.034 385.415 482 C 394.089 474.464 389.348 467.103 394.765 463.299 C 400.716 459.12 412.622 459.482 420.946 459.559 C 428.784 459.632 429.373 466.904 443.387 463.299 C 483.97 452.862 685.387 347.449 729.512 309.951 C 750.872 291.799 751.861 272.561 757.563 265.069 C 760.233 261.562 758.155 262.247 763.174 259.459 C 780.5 249.832 903.921 215.246 927.742 197.746 C 938.83 189.6 936.03 179.448 940.833 175.305 C 944.339 172.28 947.191 171.416 952.053 171.564 Z M 1369.08 955.134 C 1370.26 954.1 1371.5 952.206 1372.79 949.669 C 1372.42 936.951 1368.83 919.535 1366.44 898.265 C 1360.74 921.834 1357.04 941.716 1357.29 951.051 C 1358.42 953.5 1359.51 955.819 1360.54 957.982 C 1362.97 958.81 1366.36 957.523 1369.08 955.134 Z M 916.521 1331.02 C 915.361 1330.65 908.67 1337.34 909.041 1338.5 C 909.364 1339.51 915.275 1339.75 916.521 1338.5 C 917.768 1337.26 917.532 1331.35 916.521 1331.02 Z M 897.82 1488.11 C 897.211 1488 893.607 1494.54 894.08 1495.59 C 894.423 1496.35 897.111 1496.41 897.82 1495.59 C 898.756 1494.51 898.403 1488.22 897.82 1488.11 Z M 897.82 1562.91 C 887.158 1575.37 882.883 1647.64 886.6 1701.3 C 891.231 1768.16 923.986 1930.3 935.222 1936.93 C 942.039 1940.96 950.823 1884.45 950.183 1869.61 C 949.792 1860.54 944.084 1860.87 942.703 1850.91 C 940.149 1832.49 946.11 1770.74 946.443 1757.4 C 946.564 1752.55 946.131 1755.02 946.443 1749.92 C 947.378 1734.65 965.1 1648.33 957.663 1633.98 C 954.058 1627.02 944.549 1635.83 938.963 1630.24 C 929.705 1620.97 925.779 1575.92 916.521 1566.65 C 910.935 1561.06 902.64 1557.28 897.82 1562.91 Z M 886.6 1974.34 C 885.99 1974.22 882.386 1980.77 882.86 1981.82 C 883.203 1982.57 885.891 1982.63 886.6 1981.82 C 887.536 1980.74 887.183 1974.44 886.6 1974.34 Z M 1773.02 751.294 C 1772.41 751.18 1768.81 757.726 1769.28 758.774 C 1768.67 758.66 1765.07 765.207 1765.54 766.254 C 1765.88 767.014 1768.57 767.069 1769.28 766.254 C 1770.12 765.285 1769.92 760.079 1769.45 758.977 C 1770.13 759.536 1772.38 759.509 1773.02 758.774 C 1773.96 757.699 1773.6 751.402 1773.02 751.294 Z M 1769.28 758.774 C 1769.34 758.785 1769.39 758.856 1769.45 758.977 C 1769.37 758.917 1769.31 758.849 1769.28 758.774 Z" style="fill-opacity: 1; fill-rule: nonzero; stroke: none; stroke-dasharray: none; stroke-dashoffset: 0px; stroke-linecap: butt; stroke-linejoin: miter; stroke-miterlimit: 4; stroke-opacity: 1; stroke-width: 1px; paint-order: normal; vector-effect: none; opacity: 1; mix-blend-mode: normal; isolation: auto; fill: rgb(255, 255, 255);"/>
    <g transform="matrix(1.333333, 0, 0, -1.333333, -545.155762, 2638.240723)" id="g10">
      <g transform="scale(0.1)" id="g12">
        <g transform="scale(1.34969)" id="g14">
          <path id="path16" style="fill:none;fill-opacity:1;fill-rule:nonzero;stroke:none" d="M 0,0 H 16300 V 16300 H 0 V 0"/>
        </g>
        <g transform="scale(1.15382)" id="g18">
          <path id="path20" style="fill:#040606;fill-opacity:1;fill-rule:nonzero;stroke:none" d="M 14364.4,6021.04 10308,3661.06 c -149.3,-86.93 -281.5,-29.56 -331.31,-0.87 -49.93,28.69 -165.97,114.06 -165.97,286.87 v 5208.7 c 0,117.35 63,226.98 164.49,286.01 l 445.09,258.96 c 0.6,0.26 1,0.52 1.5,0.78 l 995.9,579.39 3051.3,1775.1 c 149.3,86.9 281.5,29.5 331.3,0.8 49.7,-28.5 164.9,-113.3 165.9,-284.4 V 7068.17 c 0,-429.61 -230.5,-830.8 -601.8,-1047.13 z M 4100.88,11772.4 c 1.09,171.1 116.22,255.9 165.88,284.4 49.88,28.7 182.03,86.1 331.36,-0.8 l 375.67,-218.5 3671.48,-2135.99 c 0.45,-0.26 0.92,-0.52 1.38,-0.78 l 445.24,-258.96 c 101.48,-59.03 164.49,-168.66 164.49,-286.01 v -5208.7 c 0,-172.81 -116.05,-258.18 -165.97,-286.87 -49.83,-28.69 -182,-86.06 -331.33,0.87 L 4702.69,6021.04 c -371.23,216.33 -601.81,617.52 -601.81,1047.13 z m 4823.13,3729.7 c 187.98,109.3 398.76,164 609.54,164 210.78,0 421.56,-54.7 609.55,-164 l 4207.3,-2447.9 v -0.1 c 110.5,-64.2 122.4,-170.2 122.4,-212.8 0,-42.4 -11.9,-147.7 -121.2,-212.1 l -3175,-1847.2 -1035.2,-602.2 c -375.15,-217.59 -840.56,-217.59 -1215.74,0 L 5390,12236.7 l -673.41,391.8 h 0.01 c -110.48,64.2 -122.42,170.2 -122.42,212.8 0,42.6 11.93,148.6 122.41,212.8 l -0.01,0.1 z M 15520.6,11770 c 0,1.1 0,2.1 0,3.1 v 225.8 c 0,308.6 -81.4,613.1 -235.2,880.6 -153.8,267.6 -376.1,491 -642.9,646.2 l -4220.7,2455.5 c -547.9,318.8 -1228.6,318.8 -1776.53,0 L 4424.62,13525.7 c -266.74,-155.2 -489.06,-378.6 -642.92,-646.2 -153.86,-267.5 -235.19,-572 -235.19,-880.6 v -225.8 c 0,-1 -0.05,-2 -0.05,-3.1 V 7061.5 h 0.17 c 1.17,-306.29 82.33,-608.33 235.07,-873.97 152.72,-265.55 372.94,-487.51 637.07,-642.56 l -0.05,-0.08 5.18,-3.04 c 0.25,-0.17 0.48,-0.26 0.72,-0.43 L 8645.27,3085.84 c 273.97,-159.39 581.13,-239.04 888.28,-239.04 307.15,0 614.35,79.65 888.25,239.04 l 4220.7,2455.58 c 0.3,0.17 0.4,0.26 0.7,0.43 l 5.2,3.04 -0.1,0.08 c 264.2,155.05 484.4,377.01 637.1,642.56 152.7,265.64 233.9,567.68 235,873.97 h 0.2 V 11770"/>
        </g>
        <path id="path22" style="fill:#040606;fill-opacity:1;fill-rule:nonzero;stroke:none" d="m 6217.96,10734.5 c 379.45,-219.1 688.13,-43.3 689.37,392.8 1.23,436.1 -305.44,967.2 -684.9,1186.3 -379.45,219.1 -688.13,43.2 -689.37,-392.8 -1.23,-436.2 305.44,-967.2 684.9,-1186.3"/>
        <path id="path24" style="fill:#040606;fill-opacity:1;fill-rule:nonzero;stroke:none" d="m 9063.99,9091.3 c 379.46,-219 688.13,-43.3 689.37,392.9 1.24,436 -305.44,967.2 -684.89,1186.3 -379.59,219.1 -688.13,43.1 -689.37,-392.9 -1.24,-436.2 305.31,-967.1 684.89,-1186.3"/>
        <path id="path26" style="fill:#040606;fill-opacity:1;fill-rule:nonzero;stroke:none" d="m 6208.69,7464.2 c 379.45,-219.1 688.13,-43.2 689.36,392.8 1.24,436 -305.43,967.2 -684.89,1186.3 -379.45,219.1 -688.13,43.2 -689.37,-392.8 -1.23,-436.1 305.44,-967.2 684.9,-1186.3"/>
        <path id="path28" style="fill:#040606;fill-opacity:1;fill-rule:nonzero;stroke:none" d="m 9054.72,5821 c 379.45,-219.1 688.13,-43.2 689.37,392.9 1.23,436 -305.44,967.2 -684.89,1186.2 -379.59,219.2 -688.14,43.2 -689.37,-392.8 -1.24,-436 305.31,-967.1 684.89,-1186.3"/>
        <path id="path30" style="fill:#040606;fill-opacity:1;fill-rule:nonzero;stroke:none" d="m 7636.5,8333.8 c 379.45,-219.1 688.13,-43.3 689.37,392.8 1.23,436 -305.44,967.2 -684.9,1186.3 -379.45,219.1 -688.13,43.2 -689.36,-392.8 -1.24,-436.2 305.43,-967.2 684.89,-1186.3"/>
        <g transform="scale(1.01032)" id="g32">
          <path id="path34" style="fill:#040606;fill-opacity:1;fill-rule:nonzero;stroke:none" d="m 15616.5,12187.9 c -375.7,-216.9 -679.2,-742.6 -678,-1174.2 1.2,-431.7 306.8,-605.7 682.3,-388.8 375.6,216.8 679.2,742.4 677.9,1174.1 -1.2,431.6 -306.7,605.7 -682.2,388.9"/>
        </g>
        <path id="path36" style="fill:#040606;fill-opacity:1;fill-rule:nonzero;stroke:none" d="m 12940.8,7400.1 c -379.4,-219 -686.1,-750.2 -684.9,-1186.2 1.2,-436.1 309.9,-612 689.4,-392.9 379.6,219.2 686.1,750.3 684.9,1186.3 -1.3,436 -309.8,612 -689.4,392.8"/>
        <path id="path38" style="fill:#040606;fill-opacity:1;fill-rule:nonzero;stroke:none" d="m 14359,9912.9 c -379.4,-219.1 -686.1,-750.3 -684.9,-1186.3 1.3,-436.1 309.9,-611.9 689.4,-392.8 379.5,219.1 686.1,750.1 684.9,1186.3 -1.2,436 -309.9,611.9 -689.4,392.8"/>
        <path id="path40" style="fill:#040606;fill-opacity:1;fill-rule:nonzero;stroke:none" d="m 10308.6,14411.1 c 379.4,-219.1 992.8,-219.1 1369.7,0 377,219.1 375,574.3 -4.4,793.4 -379.6,219.2 -992.8,219.1 -1369.8,0 -376.99,-219.1 -375.12,-574.3 4.5,-793.4"/>
      </g>
    </g>
  </g>
</svg>