<?xml version="1.0" encoding="utf-8"?>
<svg
  version="1.1"
  xmlns="http://www.w3.org/2000/svg"
  width="2933.3333"
  height="2933.3333"
  viewBox="0 0 2933.3333 2933.3333"
  preserveAspectRatio="xMidYMid meet">

  <!-- Root matrix matches your first SVG for identical centering -->
  <g transform="matrix(1.3333333,0,0,-1.3333333,0,2933.3333)" id="g10">
    <g transform="scale(0.1)" id="g12">
      <g transform="scale(1.34969)" id="g14">
        <path id="path16" style="fill:none;stroke:none" d="M 0,0 H 16300 V 16300 H 0 V 0"/>
      </g>

      <!-- Die layer -->
      <g transform="scale(1.15382)" id="g18">
        <!-- Clip confines white layer inside die silhouette -->
        <defs>
          <clipPath id="dieClip" clipPathUnits="userSpaceOnUse">
            <path d="M 14364.4,6021.04 10308,3661.06 c -149.3,-86.93 -281.5,-29.56 -331.31,-0.87 -49.93,28.69 -165.97,114.06 -165.97,286.87 v 5208.7 c 0,117.35 63,226.98 164.49,286.01 l 445.09,258.96 c 0.6,0.26 1,0.52 1.5,0.78 l 995.9,579.39 3051.3,1775.1 c 149.3,86.9 281.5,29.5 331.3,0.8 49.7,-28.5 164.9,-113.3 165.9,-284.4 V 7068.17 c 0,-429.61 -230.5,-830.8 -601.8,-1047.13 z M 4100.88,11772.4 c 1.09,171.1 116.22,255.9 165.88,284.4 49.88,28.7 182.03,86.1 331.36,-0.8 l 375.67,-218.5 3671.48,-2135.99 c 0.45,-0.26 0.92,-0.52 1.38,-0.78 l 445.24,-258.96 c 101.48,-59.03 164.49,-168.66 164.49,-286.01 v -5208.7 c 0,-172.81 -116.05,-258.18 -165.97,-286.87 -49.83,-28.69 -182,-86.06 -331.33,0.87 L 4702.69,6021.04 c -371.23,216.33 -601.81,617.52 -601.81,1047.13 z m 4823.13,3729.7 c 187.98,109.3 398.76,164 609.54,164 210.78,0 421.56,-54.7 609.55,-164 l 4207.3,-2447.9 v -0.1 c 110.5,-64.2 122.4,-170.2 122.4,-212.8 0,-42.4 -11.9,-147.7 -121.2,-212.1 l -3175,-1847.2 -1035.2,-602.2 c -375.15,-217.59 -840.56,-217.59 -1215.74,0 L 5390,12236.7 l -673.41,391.8 h 0.01 c -110.48,64.2 -122.42,170.2 -122.42,212.8 0,42.6 11.93,148.6 122.41,212.8 l -0.01,0.1 z M 15520.6,11770 c 0,1.1 0,2.1 0,3.1 v 225.8 c 0,308.6 -81.4,613.1 -235.2,880.6 -153.8,267.6 -376.1,491 -642.9,646.2 l -4220.7,2455.5 c -547.9,318.8 -1228.6,318.8 -1776.53,0 L 4424.62,13525.7 c -266.74,-155.2 -489.06,-378.6 -642.92,-646.2 -153.86,-267.5 -235.19,-572 -235.19,-880.6 v -225.8 c 0,-1 -0.05,-2 -0.05,-3.1 V 7061.5 h 0.17 c 1.17,-306.29 82.33,-608.33 235.07,-873.97 152.72,-265.55 372.94,-487.51 637.07,-642.56 l -0.05,-0.08 5.18,-3.04 c 0.25,-0.17 0.48,-0.26 0.72,-0.43 L 8645.27,3085.84 c 273.97,-159.39 581.13,-239.04 888.28,-239.04 307.15,0 614.35,79.65 888.25,239.04 l 4220.7,2455.58 c 0.3,0.17 0.4,0.26 0.7,0.43 l 5.2,3.04 -0.1,0.08 c 264.2,155.05 484.4,377.01 637.1,642.56 152.7,265.64 233.9,567.68 235,873.97 h 0.2 V 11770"/>
          </clipPath>
        </defs>

        <!-- Your white layer, kept behind and clipped inside the die -->
        <!-- Adjust translate/scale if you need to nudge it -->
        <g clip-path="url(#dieClip)" transform="translate(9300,8800) scale(6.8)">
          <path
            fill="white" stroke="white" stroke-width="6"
            d="M 818.402 905.623 C 824.124 906.069 834.972 910.019 838.974 914.974 C 842.713 919.603 843.836 928.249 842.714 933.675 C 841.665 938.743 837.787 943.947 833.363 946.765 C 828.628 949.782 820.088 951.628 814.662 950.506 C 809.594 949.457 804.39 945.579 801.572 941.155 C 798.555 936.419 796.709 927.88 797.831 922.454 C 798.88 917.385 803.474 912.159 807.182 909.363 C 810.46 906.891 813.986 905.279 818.402 905.623 Z M 592.991 -1429.255 ... 1410.222 -842.045 Z"/>
        </g>

        <!-- OUTER SILHOUETTE: stroke-only (so white shows through) -->
        <path
          id="path20"
          style="fill:none;stroke:#040606;stroke-width:120;stroke-linejoin:round;stroke-miterlimit:4"
          d="M 14364.4,6021.04 10308,3661.06 c -149.3,-86.93 -281.5,-29.56 -331.31,-0.87 -49.93,28.69 -165.97,114.06 -165.97,286.87 v 5208.7 c 0,117.35 63,226.98 164.49,286.01 l 445.09,258.96 c 0.6,0.26 1,0.52 1.5,0.78 l 995.9,579.39 3051.3,1775.1 c 149.3,86.9 281.5,29.5 331.3,0.8 49.7,-28.5 164.9,-113.3 165.9,-284.4 V 7068.17 c 0,-429.61 -230.5,-830.8 -601.8,-1047.13 z M 4100.88,11772.4 c 1.09,171.1 116.22,255.9 165.88,284.4 49.88,28.7 182.03,86.1 331.36,-0.8 l 375.67,-218.5 3671.48,-2135.99 c 0.45,-0.26 0.92,-0.52 1.38,-0.78 l 445.24,-258.96 c 101.48,-59.03 164.49,-168.66 164.49,-286.01 v -5208.7 c 0,-172.81 -116.05,-258.18 -165.97,-286.87 -49.83,-28.69 -182,-86.06 -331.33,0.87 L 4702.69,6021.04 c -371.23,216.33 -601.81,617.52 -601.81,1047.13 z m 4823.13,3729.7 c 187.98,109.3 398.76,164 609.54,164 210.78,0 421.56,-54.7 609.55,-164 l 4207.3,-2447.9 v -0.1 c 110.5,-64.2 122.4,-170.2 122.4,-212.8 0,-42.4 -11.9,-147.7 -121.2,-212.1 l -3175,-1847.2 -1035.2,-602.2 c -375.15,-217.59 -840.56,-217.59 -1215.74,0 L 5390,12236.7 l -673.41,391.8 h 0.01 c -110.48,64.2 -122.42,170.2 -122.42,212.8 0,42.6 11.93,148.6 122.41,212.8 l -0.01,0.1 z M 15520.6,11770 c 0,1.1 0,2.1 0,3.1 v 225.8 c 0,308.6 -81.4,613.1 -235.2,880.6 -153.8,267.6 -376.1,491 -642.9,646.2 l -4220.7,2455.5 c -547.9,318.8 -1228.6,318.8 -1776.53,0 L 4424.62,13525.7 c -266.74,-155.2 -489.06,-378.6 -642.92,-646.2 -153.86,-267.5 -235.19,-572 -235.19,-880.6 v -225.8 c 0,-1 -0.05,-2 -0.05,-3.1 V 7061.5 h 0.17 c 1.17,-306.29 82.33,-608.33 235.07,-873.97 152.72,-265.55 372.94,-487.51 637.07,-642.56 l -0.05,-0.08 5.18,-3.04 c 0.25,-0.17 0.48,-0.26 0.72,-0.43 L 8645.27,3085.84 c 273.97,-159.39 581.13,-239.04 888.28,-239.04 307.15,0 614.35,79.65 888.25,239.04 l 4220.7,2455.58 c 0.3,0.17 0.4,0.26 0.7,0.43 l 5.2,3.04 -0.1,0.08 c 264.2,155.05 484.4,377.01 637.1,642.56 152.7,265.64 233.9,567.68 235,873.97 h 0.2 V 11770"/>
      </g>

      <!-- Pips/details remain black fills on top -->
      <path id="path22" style="fill:#040606;stroke:white" d="m 6217.96,10734.5 c 379.45,-219.1 688.13,-43.3 689.37,392.8 1.23,436.1 -305.44,967.2 -684.9,1186.3 -379.45,219.1 -688.13,43.2 -689.37,-392.8 -1.23,-436.2 305.44,-967.2 684.9,-1186.3"/>
      <path id="path24" style="fill:#040606;stroke:none" d="m 9063.99,9091.3 c 379.46,-219 688.13,-43.3 689.37,392.9 1.24,436 -305.44,967.2 -684.89,1186.3 -379.59,219.1 -688.13,43.1 -689.37,-392.9 -1.24,-436.2 305.31,-967.1 684.89,-1186.3"/>
      <path id="path26" style="fill:#040606;stroke:none" d="m 6208.69,7464.2 c 379.45,-219.1 688.13,-43.2 689.36,392.8 1.24,436 -305.43,967.2 -684.89,1186.3 -379.45,219.1 -688.13,43.2 -689.37,-392.8 -1.23,-436.1 305.44,-967.2 684.9,-1186.3"/>
      <path id="path28" style="fill:#040606;stroke:none" d="m 9054.72,5821 c 379.45,-219.1 688.13,-43.2 689.37,392.9 1.23,436 -305.44,967.2 -684.89,1186.2 -379.59,219.2 -688.14,43.2 -689.37,-392.8 -1.24,-436 305.31,-967.1 684.89,-1186.3"/>
      <path id="path30" style="fill:#040606;stroke:none" d="m 7636.5,8333.8 c 379.45,-219.1 688.13,-43.3 689.37,392.8 1.23,436 -305.44,967.2 -684.9,1186.3 -379.45,219.1 -688.13,43.2 -689.36,-392.8 -1.24,-436.2 305.43,-967.2 684.89,-1186.3"/>
      <g transform="scale(1.01032)" id="g32">
        <path id="path34" style="fill:#040606;stroke:none" d="m 15616.5,12187.9 c -375.7,-216.9 -679.2,-742.6 -678,-1174.2 1.2,-431.7 306.8,-605.7 682.3,-388.8 375.6,216.8 679.2,742.4 677.9,1174.1 -1.2,431.6 -306.7,605.7 -682.2,388.9"/>
      </g>
      <path id="path36" style="fill:#040606;stroke:none" d="m 12940.8,7400.1 c -379.4,-219 -686.1,-750.2 -684.9,-1186.2 1.2,-436.1 309.9,-612 689.4,-392.9 379.6,219.2 686.1,750.3 684.9,1186.3 -1.3,436 -309.8,612 -689.4,392.8"/>
      <path id="path38" style="fill:#040606;stroke:none" d="m 14359,9912.9 c -379.4,-219.1 -686.1,-750.3 -684.9,-1186.3 1.3,-436.1 309.9,-611.9 689.4,-392.8 379.5,219.1 686.1,750.1 684.9,1186.3 -1.2,436 -309.9,611.9 -689.4,392.8"/>
      <path id="path40" style="fill:#040606;stroke:none" d="m 10308.6,14411.1 c 379.4,-219.1 992.8,-219.1 1369.7,0 377,219.1 375,574.3 -4.4,793.4 -379.6,219.2 -992.8,219.1 -1369.8,0 -376.99,-219.1 -375.12,-574.3 4.5,-793.4"/>
    </g>
  </g>
</svg>
