<svg width="250" height="350" viewBox="0 0 250 350" xmlns="http://www.w3.org/2000/svg" xmlns:xlink="http://www.w3.org/1999/xlink">
  <style>
    .card-bg { fill: #f8f8f8; }
    .border { fill: none; stroke: #2c2c2c; stroke-width: 1; }
    .filigree { fill: #2c2c2c; }
    .medallion-stroke { stroke: #2c2c2c; stroke-width: 1.5; }
    .medallion-fill { fill: #f8f8f8; }
  </style>

  <rect class="card-bg" x="0" y="0" width="250" height="350" rx="12" ry="12"/>
  <rect class="border" x="6" y="6" width="238" height="338" rx="8" ry="8"/>

  <defs>
    <g id="filigree-quadrant">
      <path class="filigree" d="M 124,11 C 114,12 80,20 74,40 C 70,55 75,75 96,80 C 110,84 118,70 112,60 C 105,50 95,55 92,68 C 95,65 105,68 106,73 C 100,75 98,72 96,70 M 124,30 C 110,32 90,45 88,60 C 95,55 105,50 115,48 C 122,47 124,42 124,38 M 70,45 C 60,40 50,42 40,50 C 25,60 25,75 42,88 C 55,98 70,95 75,85 M 35,90 C 25,95 18,110 22,125 C 28,145 45,155 60,150 C 78,144 85,125 78,110 C 70,95 50,85 35,90 M 76,115 C 70,119 65,128 68,135 C 72,142 80,140 82,132 C 84,125 82,118 76,115 M 124,90 C 110,95 95,110 98,125 C 100,140 115,150 124,142 M 118,124 C 113,121 108,124 108,130 C 108,136 113,138 118,135 M 20,174 C 25,160 40,150 58,154 C 45,165 30,170 20,174 M 70,174 C 80,170 100,165 124,150 C 110,160 90,172 70,174 M 124, 174 C 115, 170 90, 160 80, 152 C 95, 162 110, 172 124, 174 Z" />
      
      <path class="filigree" d="M 60,10 C 45,15 30,30 25,50 C 20,70 30,85 50,90 C 40,80 35,65 40,55 C 50,45 60,40 65,30 Z"/>
      <path class="filigree" d="M 10,60 C 5,70 8,85 20,95 C 35,105 50,100 55,85 C 50,75 40,65 30,60 C 20,58 15,55 10,60 Z"/>
      <path class="filigree" d="M 124,55 C 120,65 110,75 100,80 C 90,85 80,80 75,70 C 80,60 90,50 100,45 C 110,40 120,45 124,55 Z"/>
      <path class="filigree" d="M 85,10 C 90,5 100,5 110,15 C 120,25 125,40 120,50 C 115,40 105,30 95,25 C 85,20 80,15 85,10 Z"/>
      <path class="filigree" d="M 20,150 C 15,160 18,170 30,174 C 45,170 55,160 50,150 C 40,140 30,140 20,150 Z"/>
      <path class="filigree" d="M 100,145 C 90,148 80,155 75,165 C 70,170 80,172 90,170 C 100,165 110,155 100,145 Z"/>
      
      <path class="filigree" d="M 60,65 C 55,70 50,80 55,90 C 60,85 65,75 60,65 M 70,100 C 65,105 60,115 65,125 C 70,120 75,110 70,100 Z"/>
      <path class="filigree" d="M 105,105 C 100,110 95,120 100,130 C 105,125 110,115 105,105 Z"/>
    </g>
  </defs>

  <use xlink:href="#filigree-quadrant" />
  <use xlink:href="#filigree-quadrant" transform="scale(-1, 1) translate(-250, 0)"/>
  <use xlink:href="#filigree-quadrant" transform="scale(1, -1) translate(0, -350)"/>
  <use xlink:href="#filigree-quadrant" transform="scale(-1, -1) translate(-250, -350)"/>

  <g transform="translate(125, 175)">
    <circle class="medallion-fill" r="45"/>
    <circle class="medallion-stroke" fill="none" r="45"/>
    <circle class="medallion-stroke" fill="none" r="38"/>
    <g class="filigree">
      <path id="petal" d="M 0,-36 C 12,-15 12,15 0,36 C -12,15 -12,-15 0,-36 Z" transform="scale(0.85)"/>
      <use xlink:href="#petal" transform="rotate(45)"/>
      <use xlink:href="#petal" transform="rotate(90)"/>
      <use xlink:href="#petal" transform="rotate(135)"/>
    </g>
    <circle r="10" class="filigree"/>
  </g>
</svg>