<?xml version="1.0" encoding="utf-8"?>
<svg version="1.1" xmlns="http://www.w3.org/2000/svg" width="1500" height="832">
  <g id="svg2">
    <path stroke="rgb(255,0,0)" stroke-width="0" opacity="0.7686274509803922" d="M 592.991 -1429.255 C 600.006 -1429.041 615.844 -1425.927 621.043 -1419.904 C 625.872 -1414.309 620.995 -1400.503 624.783 -1395.593 C 627.97 -1391.461 636.602 -1393.752 639.744 -1389.983 C 643.116 -1385.937 643.971 -1375.906 643.484 -1371.282 C 643.134 -1367.956 639.175 -1364.579 639.744 -1363.801 C 640.238 -1363.124 642.864 -1364.956 645.354 -1365.671 C 649.007 -1366.721 654.52 -1369.997 660.315 -1369.412 C 667.722 -1368.664 679.089 -1358.939 686.496 -1358.191 C 692.291 -1357.606 691.539 -1364.67 701.457 -1361.931 C 733.945 -1352.96 917.621 -1243.365 957.66 -1206.713 C 977.28 -1188.753 974.099 -1173.909 983.841 -1163.701 C 991.877 -1155.28 1004.776 -1150.973 1010.022 -1146.87 C 1013.059 -1144.495 1023.024 -1136.939 1026.854 -1133.78 C 1031.129 -1130.253 1031.514 -1130.513 1044.13 -1122.298 C 1045.694 -1126.835 1049.719 -1131.279 1053.034 -1133.78 C 1056.313 -1136.252 1058.05 -1138.775 1064.255 -1137.52 C 1072.691 -1135.813 1090.136 -1123.144 1108.716 -1110.72 C 1114.544 -1109.153 1122.354 -1105.069 1125.968 -1101.988 C 1127.271 -1100.877 1127.549 -1099.751 1127.765 -1098.564 C 1134.338 -1094.658 1140.714 -1091.266 1146.539 -1088.897 C 1172.458 -1078.356 1195.527 -1083.95 1225.083 -1070.196 C 1264.566 -1051.824 1345.102 -997.436 1361.6 -974.822 C 1369.503 -963.989 1365.814 -955.3 1365.34 -948.64 C 1364.997 -943.814 1361.817 -941.797 1361.6 -937.42 C 1361.337 -932.12 1366.463 -924.145 1365.34 -918.719 C 1364.291 -913.65 1360.414 -908.447 1355.99 -905.628 C 1353.718 -904.181 1351.289 -903.034 1348.434 -902.342 C 1348.001 -887.708 1347.179 -874.63 1346.639 -866.356 C 1345.628 -850.87 1336.557 -839.983 1339.159 -834.565 C 1340.992 -830.746 1346.921 -827.724 1352.25 -830.824 C 1363.868 -837.585 1388.62 -902.442 1400.872 -913.109 C 1406.778 -918.251 1410.776 -917.56 1415.833 -916.849 C 1421.359 -916.071 1429.166 -912.755 1432.664 -907.498 C 1436.634 -901.53 1436.694 -886.609 1436.404 -881.317 C 1436.244 -878.41 1433.666 -876.363 1434.534 -875.707 C 1435.678 -874.84 1441.618 -879.921 1445.754 -879.447 C 1450.78 -878.871 1459.088 -875.353 1462.585 -870.096 C 1466.556 -864.128 1467.827 -857.128 1466.325 -843.915 C 1463.511 -819.152 1425.692 -737.235 1428.923 -722.359 C 1430.203 -716.469 1437.619 -720.393 1440.144 -716.749 C 1443.348 -712.125 1444.81 -707.363 1443.884 -694.308 C 1441.747 -664.171 1402.84 -550.141 1402.742 -514.778 C 1402.69 -496.117 1408.983 -482.144 1413.963 -479.247 C 1417.184 -477.372 1421.516 -480.804 1425.183 -484.857 C 1430.975 -491.257 1434.851 -514.365 1442.014 -520.389 C 1447.377 -524.898 1454.803 -525.054 1460.715 -524.129 C 1466.65 -523.2 1474.119 -519.469 1477.546 -514.778 C 1480.96 -510.106 1482.384 -507.707 1481.286 -496.078 C 1478.432 -465.845 1421.099 -316.687 1425.183 -295.977 C 1426.512 -289.24 1433.879 -294.011 1436.404 -290.367 C 1439.607 -285.743 1440.914 -280.54 1440.144 -267.926 C 1438.469 -240.484 1400.751 -130.816 1406.482 -112.708 C 1408.77 -105.482 1418.271 -111.117 1421.443 -107.098 C 1425.097 -102.469 1426.039 -92.709 1425.183 -84.657 C 1424.203 -75.433 1412.791 -57.289 1413.963 -54.735 C 1414.559 -53.434 1416.774 -56.817 1419.573 -56.605 C 1424.637 -56.222 1439.266 -52.826 1443.884 -47.255 C 1448.259 -41.977 1449.536 -31.792 1447.624 -24.814 C 1445.59 -17.388 1437.225 -9.601 1430.794 -4.243 C 1424.679 0.852 1417.672 -0.282 1410.222 6.978 C 1398.579 18.326 1383.311 54.93 1370.951 66.821 C 1362.506 74.945 1352.82 73.316 1346.639 79.912 C 1340.169 86.816 1342.965 98.344 1333.549 107.963 C 1318.927 122.9 1278.025 134.473 1253.135 154.715 C 1226.657 176.249 1192.719 224.135 1180.201 235.129 C 1175.208 239.514 1174.063 237.821 1170.85 240.74 C 1166.65 244.557 1166.214 251.504 1157.76 257.571 C 1142.468 268.544 1087.129 295.074 1071.735 294.972 C 1064.131 294.923 1061.738 290.159 1058.645 285.622 C 1055.183 280.544 1057.309 264.834 1053.034 265.051 C 1046.385 265.388 1034.869 301.26 1015.633 317.414 C 990.778 338.286 936.465 363.685 907.167 373.516 C 889.594 379.414 872.433 382.183 860.85 381.665 C 850.981 402.885 840.143 422.673 832.363 429.619 C 825.553 435.7 818.287 433.847 813.662 433.36 C 810.337 433.009 809.759 429.522 806.182 429.619 C 800.342 429.778 786.359 438.786 780.001 440.84 C 775.897 442.166 774.792 439.217 770.65 442.71 C 760.264 451.469 742.013 507.515 720.158 523.124 C 700.525 537.146 665.668 540.768 649.094 538.085 C 637.524 536.212 630.739 528.303 624.783 521.254 C 619.059 514.479 620.026 502.539 613.562 496.943 C 606.678 490.982 590.272 495.532 583.641 487.592 C 575.563 477.919 580.425 437.865 574.29 437.1 C 567.748 436.283 556.296 479.559 544.369 489.462 C 534.982 497.256 518.494 494.633 512.577 498.813 C 508.784 501.493 510.881 505.95 506.967 508.163 C 500.808 511.646 488.21 514.24 473.305 511.904 C 449.942 508.241 399.106 488.136 376.06 474.502 C 359.203 464.529 346.988 448.761 340.528 442.71 C 337.376 439.757 337.767 440.347 334.918 437.1 C 329.07 430.434 311.657 405.513 304.997 399.698 C 301.683 396.804 301.527 396.285 297.516 395.958 C 290.157 395.357 272.783 406.988 260.114 403.438 C 244.823 399.153 222.473 373.695 213.362 364.166 C 208.018 358.577 209.506 356.871 204.012 351.075 C 194.176 340.702 162.036 305.923 151.649 306.193 C 145.095 306.363 145.961 321.143 140.428 324.894 C 134.802 328.709 125.381 330.372 117.987 328.634 C 109.776 326.705 99.71 315.724 93.676 311.803 C 89.627 309.173 87.69 306.55 84.325 306.193 C 80.85 305.825 77.723 308.811 73.105 309.933 C 67.106 311.391 56.825 315.007 50.664 313.673 C 45.3 312.512 41.243 310.884 37.573 304.323 C 30.949 292.48 34.235 241.887 24.482 235.13 C 17.373 230.203 2.13 247.066 -5.439 246.35 C -11.191 245.806 -14.386 241.011 -18.53 237 C -23.168 232.51 -25.101 225.244 -31.62 220.169 C -39.947 213.686 -60.676 210.165 -67.152 203.338 C -71.863 198.372 -68.385 188.591 -72.762 186.507 C -77.958 184.033 -90.148 196.201 -98.944 193.987 C -109.444 191.345 -123.715 173.547 -130.735 165.936 C -135.5 160.771 -133.336 158.059 -140.086 152.845 C -153.983 142.111 -216.2 119.339 -227.98 109.833 C -232.878 105.881 -230.017 103.503 -233.591 100.483 C -239.015 95.898 -255.103 96.453 -261.642 87.392 C -270.213 75.515 -271.729 46.762 -272.863 27.549 C -273.931 9.442 -269.08 -2.864 -269.122 -24.814 C -269.181 -54.974 -277.517 -119.484 -276.603 -140.759 C -276.159 -151.086 -273.118 -152.038 -272.863 -159.46 C -272.541 -168.799 -276.603 -181.902 -276.603 -193.122 C -276.603 -204.343 -272.415 -214.9 -272.863 -226.784 C -273.35 -239.713 -279.415 -251.782 -280.343 -267.926 C -281.491 -287.896 -275.871 -308.668 -276.603 -338.99 C -277.637 -381.842 -292.166 -461.765 -291.564 -507.298 C -291.102 -542.173 -275.679 -578.769 -280.343 -593.322 C -282.868 -601.2 -291.121 -596.686 -295.304 -604.543 C -303.051 -619.095 -311.953 -657.874 -310.264 -690.567 C -308.219 -730.175 -286.749 -811.654 -274.733 -827.084 C -269.775 -833.45 -264.944 -830.77 -259.772 -830.824 C -254.364 -830.881 -247.241 -824.957 -242.941 -827.084 C -238.296 -829.382 -239.504 -840.044 -233.591 -845.785 C -225.603 -853.54 -203.406 -856.789 -194.319 -866.356 C -189.417 -871.517 -184.574 -879.225 -181.717 -886.415 C -187.154 -885.9 -192.56 -886.103 -196.189 -886.927 C -202.037 -888.256 -206.469 -892.007 -209.279 -896.278 C -212.168 -900.668 -210.177 -909.352 -213.02 -913.109 C -215.523 -916.416 -221.342 -914.207 -224.24 -918.719 C -229.093 -926.273 -235.24 -949.376 -231.721 -963.601 C -227.966 -978.776 -211.61 -999.389 -199.929 -1006.613 C -190.641 -1012.357 -176.348 -1011.189 -170.007 -1010.354 C -166.211 -1009.853 -166.309 -1005.951 -162.527 -1006.613 C -159.205 -1007.195 -153.366 -1012.248 -147.045 -1017.765 C -142.179 -1026.912 -132.401 -1037.081 -117.645 -1047.755 C -88.698 -1068.696 6.746 -1101.785 26.353 -1118.819 C 35.027 -1126.355 30.286 -1133.716 35.703 -1137.52 C 41.654 -1141.699 53.56 -1141.337 61.884 -1141.26 C 69.722 -1141.187 70.311 -1133.915 84.325 -1137.52 C 124.908 -1147.957 326.325 -1253.37 370.45 -1290.868 C 391.81 -1309.02 392.799 -1328.258 398.501 -1335.75 C 401.171 -1339.257 399.093 -1338.572 404.112 -1341.36 C 421.438 -1350.987 544.859 -1385.573 568.68 -1403.073 C 579.768 -1411.219 576.968 -1421.371 581.771 -1425.514 C 585.277 -1428.539 588.129 -1429.403 592.991 -1429.255 Z M 1010.022 -645.685 C 1011.2 -646.719 1012.441 -648.613 1013.731 -651.15 C 1013.356 -663.868 1009.775 -681.284 1007.385 -702.554 C 1001.682 -678.985 997.981 -659.103 998.234 -649.768 C 999.361 -647.319 1000.446 -645 1001.48 -642.837 C 1003.907 -642.009 1007.298 -643.296 1010.022 -645.685 Z M 557.459 -269.796 C 556.299 -270.167 549.608 -263.476 549.979 -262.316 C 550.302 -261.305 556.213 -261.069 557.459 -262.316 C 558.706 -263.562 558.47 -269.473 557.459 -269.796 Z M 538.758 -112.708 C 538.149 -112.822 534.545 -106.275 535.018 -105.228 C 535.361 -104.468 538.049 -104.413 538.758 -105.228 C 539.694 -106.303 539.341 -112.599 538.758 -112.708 Z M 538.758 -37.904 C 528.096 -25.444 523.821 46.825 527.538 100.483 C 532.169 167.339 564.924 329.482 576.16 336.115 C 582.977 340.138 591.761 283.634 591.121 268.791 C 590.73 259.719 585.022 260.055 583.641 250.09 C 581.087 231.671 587.048 169.925 587.381 156.586 C 587.502 151.73 587.069 154.198 587.381 149.105 C 588.316 133.833 606.038 47.511 598.601 33.159 C 594.996 26.2 585.487 35.01 579.901 29.419 C 570.643 20.154 566.717 -24.899 557.459 -34.164 C 551.873 -39.755 543.578 -43.536 538.758 -37.904 Z M 527.538 373.517 C 526.928 373.403 523.324 379.949 523.798 380.997 C 524.141 381.756 526.829 381.812 527.538 380.997 C 528.474 379.922 528.121 373.625 527.538 373.517 Z M 1413.963 -849.525 C 1413.353 -849.639 1409.749 -843.093 1410.222 -842.045 C 1409.613 -842.159 1406.009 -835.612 1406.482 -834.565 C 1406.825 -833.805 1409.513 -833.75 1410.222 -834.565 C 1411.065 -835.534 1410.862 -840.74 1410.387 -841.842 C 1411.076 -841.283 1413.323 -841.31 1413.963 -842.045 C 1414.899 -843.12 1414.546 -849.417 1413.963 -849.525 Z M 1410.222 -842.045 C 1410.28 -842.034 1410.335 -841.963 1410.387 -841.842 C 1410.312 -841.902 1410.256 -841.97 1410.222 -842.045 Z" style="fill-opacity: 1; fill-rule: nonzero; stroke: none; stroke-dasharray: none; stroke-dashoffset: 0px; stroke-linecap: butt; stroke-linejoin: miter; stroke-miterlimit: 4; stroke-opacity: 1; stroke-width: 1px; paint-order: normal; vector-effect: none; opacity: 1; mix-blend-mode: normal; isolation: auto; fill: rgb(255, 255, 255);"/>
    <g transform="matrix(1.333333, 0, 0, -1.333333, -904.217773, 1033.682251)" id="g10">
      <g transform="scale(0.1)" id="g12">
        <g transform="scale(1.34969)" id="g14">
          <path id="path16" style="fill:none;fill-opacity:1;fill-rule:nonzero;stroke:none" d="M 0,0 H 16300 V 16300 H 0 V 0"/>
        </g>
        <g transform="scale(1.15382)" id="g18">
          <path id="path20" style="fill:#040606;fill-opacity:1;fill-rule:nonzero;stroke:none" d="M 14364.4,6021.04 10308,3661.06 c -149.3,-86.93 -281.5,-29.56 -331.31,-0.87 -49.93,28.69 -165.97,114.06 -165.97,286.87 v 5208.7 c 0,117.35 63,226.98 164.49,286.01 l 445.09,258.96 c 0.6,0.26 1,0.52 1.5,0.78 l 995.9,579.39 3051.3,1775.1 c 149.3,86.9 281.5,29.5 331.3,0.8 49.7,-28.5 164.9,-113.3 165.9,-284.4 V 7068.17 c 0,-429.61 -230.5,-830.8 -601.8,-1047.13 z M 4100.88,11772.4 c 1.09,171.1 116.22,255.9 165.88,284.4 49.88,28.7 182.03,86.1 331.36,-0.8 l 375.67,-218.5 3671.48,-2135.99 c 0.45,-0.26 0.92,-0.52 1.38,-0.78 l 445.24,-258.96 c 101.48,-59.03 164.49,-168.66 164.49,-286.01 v -5208.7 c 0,-172.81 -116.05,-258.18 -165.97,-286.87 -49.83,-28.69 -182,-86.06 -331.33,0.87 L 4702.69,6021.04 c -371.23,216.33 -601.81,617.52 -601.81,1047.13 z m 4823.13,3729.7 c 187.98,109.3 398.76,164 609.54,164 210.78,0 421.56,-54.7 609.55,-164 l 4207.3,-2447.9 v -0.1 c 110.5,-64.2 122.4,-170.2 122.4,-212.8 0,-42.4 -11.9,-147.7 -121.2,-212.1 l -3175,-1847.2 -1035.2,-602.2 c -375.15,-217.59 -840.56,-217.59 -1215.74,0 L 5390,12236.7 l -673.41,391.8 h 0.01 c -110.48,64.2 -122.42,170.2 -122.42,212.8 0,42.6 11.93,148.6 122.41,212.8 l -0.01,0.1 z M 15520.6,11770 c 0,1.1 0,2.1 0,3.1 v 225.8 c 0,308.6 -81.4,613.1 -235.2,880.6 -153.8,267.6 -376.1,491 -642.9,646.2 l -4220.7,2455.5 c -547.9,318.8 -1228.6,318.8 -1776.53,0 L 4424.62,13525.7 c -266.74,-155.2 -489.06,-378.6 -642.92,-646.2 -153.86,-267.5 -235.19,-572 -235.19,-880.6 v -225.8 c 0,-1 -0.05,-2 -0.05,-3.1 V 7061.5 h 0.17 c 1.17,-306.29 82.33,-608.33 235.07,-873.97 152.72,-265.55 372.94,-487.51 637.07,-642.56 l -0.05,-0.08 5.18,-3.04 c 0.25,-0.17 0.48,-0.26 0.72,-0.43 L 8645.27,3085.84 c 273.97,-159.39 581.13,-239.04 888.28,-239.04 307.15,0 614.35,79.65 888.25,239.04 l 4220.7,2455.58 c 0.3,0.17 0.4,0.26 0.7,0.43 l 5.2,3.04 -0.1,0.08 c 264.2,155.05 484.4,377.01 637.1,642.56 152.7,265.64 233.9,567.68 235,873.97 h 0.2 V 11770"/>
        </g>
        <path id="path22" style="fill:#040606;fill-opacity:1;fill-rule:nonzero;stroke:none" d="m 6217.96,10734.5 c 379.45,-219.1 688.13,-43.3 689.37,392.8 1.23,436.1 -305.44,967.2 -684.9,1186.3 -379.45,219.1 -688.13,43.2 -689.37,-392.8 -1.23,-436.2 305.44,-967.2 684.9,-1186.3"/>
        <path id="path24" style="fill:#040606;fill-opacity:1;fill-rule:nonzero;stroke:none" d="m 9063.99,9091.3 c 379.46,-219 688.13,-43.3 689.37,392.9 1.24,436 -305.44,967.2 -684.89,1186.3 -379.59,219.1 -688.13,43.1 -689.37,-392.9 -1.24,-436.2 305.31,-967.1 684.89,-1186.3"/>
        <path id="path26" style="fill:#040606;fill-opacity:1;fill-rule:nonzero;stroke:none" d="m 6208.69,7464.2 c 379.45,-219.1 688.13,-43.2 689.36,392.8 1.24,436 -305.43,967.2 -684.89,1186.3 -379.45,219.1 -688.13,43.2 -689.37,-392.8 -1.23,-436.1 305.44,-967.2 684.9,-1186.3"/>
        <path id="path28" style="fill:#040606;fill-opacity:1;fill-rule:nonzero;stroke:none" d="m 9054.72,5821 c 379.45,-219.1 688.13,-43.2 689.37,392.9 1.23,436 -305.44,967.2 -684.89,1186.2 -379.59,219.2 -688.14,43.2 -689.37,-392.8 -1.24,-436 305.31,-967.1 684.89,-1186.3"/>
        <path id="path30" style="fill:#040606;fill-opacity:1;fill-rule:nonzero;stroke:none" d="m 7636.5,8333.8 c 379.45,-219.1 688.13,-43.3 689.37,392.8 1.23,436 -305.44,967.2 -684.9,1186.3 -379.45,219.1 -688.13,43.2 -689.36,-392.8 -1.24,-436.2 305.43,-967.2 684.89,-1186.3"/>
        <g transform="scale(1.01032)" id="g32">
          <path id="path34" style="fill:#040606;fill-opacity:1;fill-rule:nonzero;stroke:none" d="m 15616.5,12187.9 c -375.7,-216.9 -679.2,-742.6 -678,-1174.2 1.2,-431.7 306.8,-605.7 682.3,-388.8 375.6,216.8 679.2,742.4 677.9,1174.1 -1.2,431.6 -306.7,605.7 -682.2,388.9"/>
        </g>
        <path id="path36" style="fill:#040606;fill-opacity:1;fill-rule:nonzero;stroke:none" d="m 12940.8,7400.1 c -379.4,-219 -686.1,-750.2 -684.9,-1186.2 1.2,-436.1 309.9,-612 689.4,-392.9 379.6,219.2 686.1,750.3 684.9,1186.3 -1.3,436 -309.8,612 -689.4,392.8"/>
        <path id="path38" style="fill:#040606;fill-opacity:1;fill-rule:nonzero;stroke:none" d="m 14359,9912.9 c -379.4,-219.1 -686.1,-750.3 -684.9,-1186.3 1.3,-436.1 309.9,-611.9 689.4,-392.8 379.5,219.1 686.1,750.1 684.9,1186.3 -1.2,436 -309.9,611.9 -689.4,392.8"/>
        <path id="path40" style="fill:#040606;fill-opacity:1;fill-rule:nonzero;stroke:none" d="m 10308.6,14411.1 c 379.4,-219.1 992.8,-219.1 1369.7,0 377,219.1 375,574.3 -4.4,793.4 -379.6,219.2 -992.8,219.1 -1369.8,0 -376.99,-219.1 -375.12,-574.3 4.5,-793.4"/>
      </g>
    </g>
  </g>
</svg>